<svg xmlns="http://www.w3.org/2000/svg" viewBox="14 8 678 961" width="678" height="961" xmlns:c2pa="http://c2pa.org/manifest"><metadata><c2pa:manifest>AAAWgmp1bWIAAAAeanVtZGMycGEAEQAQgAAAqgA4m3EDYzJwYQAAABZcanVtYgAAAEdqdW1kYzJtYQARABCAAACqADibcQN1cm46YzJwYTozZGU4NjBkMS03NTc1LTQzZjYtOWI5YS0xOGY5ZGQwNDAxNDAAAAADl2p1bWIAAAApanVtZGMyYXMAEQAQgAAAqgA4m3EDYzJwYS5hc3NlcnRpb25zAAAAALxqdW1iAAAARGp1bWRjYm9yABEAEIAAAKoAOJtxE2MycGEuaW5ncmVkaWVudC52MwAAAAAYYzJzaDJPk2feYDCH4FhUcJ4VwncAAABwY2JvcqNpZGM6Zm9ybWF0bWltYWdlL3N2Zyt4bWxqaW5zdGFuY2VJRHgseG1wOmlpZDpjNDc4MDljYy0yM2RiLTQ1NjEtYTJhNS03OGExYWE0NzQ3YTJscmVsYXRpb25zaGlwaHBhcmVudE9mAAAB4mp1bWIAAABBanVtZGNib3IAEQAQgAAAqgA4m3ETYzJwYS5hY3Rpb25zLnYyAAAAABhjMnNoTB8hK374+jx0PhoI2ucK8wAAAZljYm9yomdhY3Rpb25zgqJmYWN0aW9ua2MycGEub3BlbmVkanBhcmFtZXRlcnOha2luZ3JlZGllbnRzgaJjdXJseC1zZWxmI2p1bWJmPWMycGEuYXNzZXJ0aW9ucy9jMnBhLmluZ3JlZGllbnQudjNkaGFzaFggBG8UcVS5692C0A1xpFZjd+xncUM2bboBdS6Le18rJc6kZmFjdGlvbngdY29tLmFudGhyb3BpYy5jbGF1ZGUucHJvdmlkZWRqcGFyYW1ldGVyc6F4H2NvbS5hbnRocm9waWMub3JpZ2luLWNvbmZpZGVuY2VndW5rbm93bmtkZXNjcmlwdGlvbnhmQ2xhdWRlIHByb3ZpZGVkIHRoaXMgZmlsZSBhdCB0aGUgcmVxdWVzdCBvZiBhIHVzZXIgYW5kIG1heSBoYXZlIGNyZWF0ZWQgb3IgbW9kaWZpZWQgdGhlIGZpbGUgY29udGVudHMubXNvZnR3YXJlQWdlbnShZG5hbWVmQ2xhdWRlcmFsbEFjdGlvbnNJbmNsdWRlZPUAAADIanVtYgAAAEBqdW1kY2JvcgARABCAAACqADibcRNjMnBhLmhhc2guZGF0YQAAAAAYYzJzaGUr41EwGYP1VrGeUEXOYbgAAACAY2JvcqVjYWxnZnNoYTI1NmNwYWRNAAAAAAAAAAAAAAAAAGRoYXNoWCABp/O+3ei4nWy/q8WpAcH4X1MvV+KZEJcpHK4m20S2mmRuYW1lbmp1bWJmIG1hbmlmZXN0amV4Y2x1c2lvbnOBomVzdGFydBiXZmxlbmd0aBkeBAAAAj5qdW1iAAAAJ2p1bWRjMmNsABEAEIAAAKoAOJtxA2MycGEuY2xhaW0udjIAAAACD2Nib3KlY2FsZ2ZzaGEyNTZpc2lnbmF0dXJleE1zZWxmI2p1bWJmPS9jMnBhL3VybjpjMnBhOjNkZTg2MGQxLTc1NzUtNDNmNi05YjlhLTE4ZjlkZDA0MDE0MC9jMnBhLnNpZ25hdHVyZWppbnN0YW5jZUlEeCx4bXA6aWlkOjc1Y2VhYTk4LTFmMGUtNDEzMi1hOWM2LWI4NmU2NGVjNmU4ZXJjcmVhdGVkX2Fzc2VydGlvbnODomN1cmx4LXNlbGYjanVtYmY9YzJwYS5hc3NlcnRpb25zL2MycGEuaW5ncmVkaWVudC52M2RoYXNoWCAEbxRxVLnr3YLQDXGkVmN37GdxQzZtugF1Lot7XyslzqJjdXJseCpzZWxmI2p1bWJmPWMycGEuYXNzZXJ0aW9ucy9jMnBhLmFjdGlvbnMudjJkaGFzaFgg7+mjbL/LCZyOMyg3chY2qzDzcV3w+fRIa+7TBHCgBBOiY3VybHgpc2VsZiNqdW1iZj1jMnBhLmFzc2VydGlvbnMvYzJwYS5oYXNoLmRhdGFkaGFzaFggN78pv7xRTnK6Z9AXWRmAvpGnVpXU/Eu841bA9JFB1k10Y2xhaW1fZ2VuZXJhdG9yX2luZm+jZG5hbWVvQW50aHJvcGljIEZpbGVzZ3ZlcnNpb25lMS4wLjBrc3BlY1ZlcnNpb25lMi40LjAAABA4anVtYgAAAChqdW1kYzJjcwARABCAAACqADibcQNjMnBhLnNpZ25hdHVyZQAAABAIY2JvctKEWQISogEmGCFZAgowggIGMIIBjaADAgECAhRA5aAK7sI50L64g/oGQgU9Z1UTADAKBggqhkjOPQQDAzBJMRcwFQYDVQQKEw5BbnRocm9waWMsIFBCQzEuMCwGA1UEAxMlQW50aHJvcGljIENvbnRlbnQgQ3JlZGVudGlhbHMgUm9vdCBDQTAeFw0yNjA4MDcxODQzNTZaFw0yODA4MDYxOTQzNTZaMEQxFzAVBgNVBAoTDkFudGhyb3BpYywgUEJDMSkwJwYDVQQDEyBBbnRocm9waWMgQ2xhdWRlIENvbnRlbnQgU2lnbmluZzBZMBMGByqGSM49AgEGCCqGSM49AwEHA0IABJh6CmvLUBgFFNU0vUKlOVtE6djd17L5SuwX0LemFisBM3dkd/3cyjxFA3Qo5S46fX0/ihY0VZ7mfb9KF703t5OjWDBWMA4GA1UdDwEB/wQEAwIHgDAVBgNVHSUEDjAMBgorBgEEAYPoXgIBMAwGA1UdEwEB/wQCMAAwHwYDVR0jBBgwFoAUzlHiBIFOZFsj+OPEz5o+nMHXXMIwCgYIKoZIzj0EAwMDZwAwZAIwMXMdFJ4BetLLVY7ORuE9noqbbAZOZn/aArXyTwFAZfKrPzxF2vPoJNf1+UCdg1XGAjBwX1zd9WGqYkqmL5SFqw1QySjr1zJfpJM9+1rdDwSPLMOPOjKuiXjoU/pUUeG9RwmhY3BhZFkNngAAAAAAAAAAAAAAAAAAAAAAAAAAAAAAAAAAAAAAAAAAAAAAAAAAAAAAAAAAAAAAAAAAAAAAAAAAAAAAAAAAAAAAAAAAAAAAAAAAAAAAAAAAAAAAAAAAAAAAAAAAAAAAAAAAAAAAAAAAAAAAAAAAAAAAAAAAAAAAAAAAAAAAAAAAAAAAAAAAAAAAAAAAAAAAAAAAAAAAAAAAAAAAAAAAAAAAAAAAAAAAAAAAAAAAAAAAAAAAAAAAAAAAAAAAAAAAAAAAAAAAAAAAAAAAAAAAAAAAAAAAAAAAAAAAAAAAAAAAAAAAAAAAAAAAAAAAAAAAAAAAAAAAAAAAAAAAAAAAAAAAAAAAAAAAAAAAAAAAAAAAAAAAAAAAAAAAAAAAAAAAAAAAAAAAAAAAAAAAAAAAAAAAAAAAAAAAAAAAAAAAAAAAAAAAAAAAAAAAAAAAAAAAAAAAAAAAAAAAAAAAAAAAAAAAAAAAAAAAAAAAAAAAAAAAAAAAAAAAAAAAAAAAAAAAAAAAAAAAAAAAAAAAAAAAAAAAAAAAAAAAAAAAAAAAAAAAAAAAAAAAAAAAAAAAAAAAAAAAAAAAAAAAAAAAAAAAAAAAAAAAAAAAAAAAAAAAAAAAAAAAAAAAAAAAAAAAAAAAAAAAAAAAAAAAAAAAAAAAAAAAAAAAAAAAAAAAAAAAAAAAAAAAAAAAAAAAAAAAAAAAAAAAAAAAAAAAAAAAAAAAAAAAAAAAAAAAAAAAAAAAAAAAAAAAAAAAAAAAAAAAAAAAAAAAAAAAAAAAAAAAAAAAAAAAAAAAAAAAAAAAAAAAAAAAAAAAAAAAAAAAAAAAAAAAAAAAAAAAAAAAAAAAAAAAAAAAAAAAAAAAAAAAAAAAAAAAAAAAAAAAAAAAAAAAAAAAAAAAAAAAAAAAAAAAAAAAAAAAAAAAAAAAAAAAAAAAAAAAAAAAAAAAAAAAAAAAAAAAAAAAAAAAAAAAAAAAAAAAAAAAAAAAAAAAAAAAAAAAAAAAAAAAAAAAAAAAAAAAAAAAAAAAAAAAAAAAAAAAAAAAAAAAAAAAAAAAAAAAAAAAAAAAAAAAAAAAAAAAAAAAAAAAAAAAAAAAAAAAAAAAAAAAAAAAAAAAAAAAAAAAAAAAAAAAAAAAAAAAAAAAAAAAAAAAAAAAAAAAAAAAAAAAAAAAAAAAAAAAAAAAAAAAAAAAAAAAAAAAAAAAAAAAAAAAAAAAAAAAAAAAAAAAAAAAAAAAAAAAAAAAAAAAAAAAAAAAAAAAAAAAAAAAAAAAAAAAAAAAAAAAAAAAAAAAAAAAAAAAAAAAAAAAAAAAAAAAAAAAAAAAAAAAAAAAAAAAAAAAAAAAAAAAAAAAAAAAAAAAAAAAAAAAAAAAAAAAAAAAAAAAAAAAAAAAAAAAAAAAAAAAAAAAAAAAAAAAAAAAAAAAAAAAAAAAAAAAAAAAAAAAAAAAAAAAAAAAAAAAAAAAAAAAAAAAAAAAAAAAAAAAAAAAAAAAAAAAAAAAAAAAAAAAAAAAAAAAAAAAAAAAAAAAAAAAAAAAAAAAAAAAAAAAAAAAAAAAAAAAAAAAAAAAAAAAAAAAAAAAAAAAAAAAAAAAAAAAAAAAAAAAAAAAAAAAAAAAAAAAAAAAAAAAAAAAAAAAAAAAAAAAAAAAAAAAAAAAAAAAAAAAAAAAAAAAAAAAAAAAAAAAAAAAAAAAAAAAAAAAAAAAAAAAAAAAAAAAAAAAAAAAAAAAAAAAAAAAAAAAAAAAAAAAAAAAAAAAAAAAAAAAAAAAAAAAAAAAAAAAAAAAAAAAAAAAAAAAAAAAAAAAAAAAAAAAAAAAAAAAAAAAAAAAAAAAAAAAAAAAAAAAAAAAAAAAAAAAAAAAAAAAAAAAAAAAAAAAAAAAAAAAAAAAAAAAAAAAAAAAAAAAAAAAAAAAAAAAAAAAAAAAAAAAAAAAAAAAAAAAAAAAAAAAAAAAAAAAAAAAAAAAAAAAAAAAAAAAAAAAAAAAAAAAAAAAAAAAAAAAAAAAAAAAAAAAAAAAAAAAAAAAAAAAAAAAAAAAAAAAAAAAAAAAAAAAAAAAAAAAAAAAAAAAAAAAAAAAAAAAAAAAAAAAAAAAAAAAAAAAAAAAAAAAAAAAAAAAAAAAAAAAAAAAAAAAAAAAAAAAAAAAAAAAAAAAAAAAAAAAAAAAAAAAAAAAAAAAAAAAAAAAAAAAAAAAAAAAAAAAAAAAAAAAAAAAAAAAAAAAAAAAAAAAAAAAAAAAAAAAAAAAAAAAAAAAAAAAAAAAAAAAAAAAAAAAAAAAAAAAAAAAAAAAAAAAAAAAAAAAAAAAAAAAAAAAAAAAAAAAAAAAAAAAAAAAAAAAAAAAAAAAAAAAAAAAAAAAAAAAAAAAAAAAAAAAAAAAAAAAAAAAAAAAAAAAAAAAAAAAAAAAAAAAAAAAAAAAAAAAAAAAAAAAAAAAAAAAAAAAAAAAAAAAAAAAAAAAAAAAAAAAAAAAAAAAAAAAAAAAAAAAAAAAAAAAAAAAAAAAAAAAAAAAAAAAAAAAAAAAAAAAAAAAAAAAAAAAAAAAAAAAAAAAAAAAAAAAAAAAAAAAAAAAAAAAAAAAAAAAAAAAAAAAAAAAAAAAAAAAAAAAAAAAAAAAAAAAAAAAAAAAAAAAAAAAAAAAAAAAAAAAAAAAAAAAAAAAAAAAAAAAAAAAAAAAAAAAAAAAAAAAAAAAAAAAAAAAAAAAAAAAAAAAAAAAAAAAAAAAAAAAAAAAAAAAAAAAAAAAAAAAAAAAAAAAAAAAAAAAAAAAAAAAAAAAAAAAAAAAAAAAAAAAAAAAAAAAAAAAAAAAAAAAAAAAAAAAAAAAAAAAAAAAAAAAAAAAAAAAAAAAAAAAAAAAAAAAAAAAAAAAAAAAAAAAAAAAAAAAAAAAAAAAAAAAAAAAAAAAAAAAAAAAAAAAAAAAAAAAAAAAAAAAAAAAAAAAAAAAAAAAAAAAAAAAAAAAAAAAAAAAAAAAAAAAAAAAAAAAAAAAAAAAAAAAAAAAAAAAAAAAAAAAAAAAAAAAAAAAAAAAAAAAAAAAAAAAAAAAAAAAAAAAAAAAAAAAAAAAAAAAAAAAAAAAAAAAAAAAAAAAAAAAAAAAAAAAAAAAAAAAAAAAAAAAAAAAAAAAAAAAAAAAAAAAAAAAAAAAAAAAAAAAAAAAAAAAAAAAAAAAAAAAAAAAAAAAAAAAAAAAAAAAAAAAAAAAAAAAAAAAAAAAAAAAAAAAAAAAAAAAAAAAAAAAAAAAAAAAAAAAAAAAAAAAAAAAAAAAAAAAAAAAAAAAAAAAAAAAAAAAAAAAAAAAAAAAAAAAAAAAAAAAAAAAAAAAAAAAAAAAAAAAAAAAAAAAAAAAAAAAAAAAAAAAAAAAAAAAAAAAAAAAAAAAAAAAAAAAAAAAAAAAAAAAAAAAAAAAAAAAAAAAAAAAAAAAAAAAAAAAAAAAAAAAAAAAAAAAAAAAAAAAAAAAAAAAAAAAAAAAAAAAAAAAAAAAAAAAAAAAAAAAAAAAAAAAAAAAAAAAAAAAAAAAAAAAAAAAAAAAAAAAAAAAAAAAAAAAAAAAAAAAAAAAAAAAAAAAAAAAAAAAAAAAAAAAAAAAAAAAAAAAAAAAAAAAAAAAAAAAAAAAAAAAAAAAAAAAAAAAAAAAAAAAAAAAAAAAAAAAAAAAAAAAAAAAAAAAAAAAAAAAAAAAAAAAAAAAAAAAAAAAAAAAAAAAAAAAAAAAAAAAAAAAAAAAAAAAAAAAAAAAAAAAAAAAAAAAAAAAAAAAAAAAAAAAAAAAAAAAAAAAAAAAAAAAAAAAAAAAAAAAAAAAAAAAAAAAAAAAAAAAAAAAAAAAAAAAAAAAAAAAAAAAAAAAAAAAAAAAAAAAAAAAAAAAAAAAAAAAAAAAAAAAAAAAAAAAAAAAAAAAAAAAAAAAAAAAAAAAAAAAAAAAAAAAAAAAAAAAAAAAAAAAAAAAAAAAAAAAAAAAAAAAAAAAAAAAAAAAAAAAAAAAAAAAAAAAAAAAAAAAAAAAAAAAAAAAAAAAAAAAAAAAAAAAAAAAAAAAAAAAAAAAAAAAAAAAAAAAAAAAAAAAAAAAAAAAAAAAAAAAAAAAAAAAAAAAAAAAAAAAAAAAAAAAAAAAAAAAAAAAAAAAAAAAAAAAAAAAAAAAAAAAAAAAAAAAAAAAAAAAAAAAAAAAAAAAAAAAAAAAAAAAAAAAAAAAAAAAAAAAAAAAAAAAAAAAAAAAAAAAAAAAAAAAAAAAAAAAAAAAAAAAAAAAAAAAAAAAAAAAAAAAAAAAAAAAAAAAAAAAAAAAAAAAAAAAAAAAAAAAAAAAAAAAAAAAAAAAAAAAAAAAAAAAAAAAAAAAAAAAAAAAAAAAAAAAAAAAAAAAAAAAAAAAAAAAAAAAAAAAAAAAAAAAAAAAAAAAAAAAAAAAAAAAAAAAAAAAAAAAAAAAAAAAAAAAAAAAAAAAAAAAAAAAAAAAAAAAAAAAAAAAAAAAAAAAAAAAAAAAAAAAAAAAAAAAAAAAAAAAAAAAAAAAAAAAAAAAAAAAAAAAAAAAAAAAAAAAAAAAAAAAAAAAAAAAAAAAAAAAAAAAAAAAAAAAAAAAAAAAAAAAAAAAAAAAAAAAAAAAAAAAAAAAAAAAAAAAAAAAAAAAAAAAAAAAAAAAAAAAAAAAAAAAAAAAAAAAAAAAAPZYQJ1rYNNx+iZd13l+OqmD0ZjEG09yVYUCbZd6OxHcmw69lTc57JjXjZ8oEsHIoMulKn78sgFRL4JJVC+sPFmNcyc=</c2pa:manifest></metadata>
  <title>Leo</title>
  <defs>
    <g id="g1"><path fill="#ece5da" d="M100 0 L49.57 -6.53 L49.57 6.53 ZM92.39 38.27 L48.3 12.94 L43.3 25 ZM70.71 70.71 L39.67 30.44 L30.44 39.67 ZM38.27 92.39 L25 43.3 L12.94 48.3 ZM0 100 L6.53 49.57 L-6.53 49.57 ZM-38.27 92.39 L-12.94 48.3 L-25 43.3 ZM-70.71 70.71 L-30.44 39.67 L-39.67 30.44 ZM-92.39 38.27 L-43.3 25 L-48.3 12.94 ZM-100 0 L-49.57 6.53 L-49.57 -6.53 ZM-92.39 -38.27 L-48.3 -12.94 L-43.3 -25 ZM-70.71 -70.71 L-39.67 -30.44 L-30.44 -39.67 ZM-38.27 -92.39 L-25 -43.3 L-12.94 -48.3 ZM0 -100 L-6.53 -49.57 L6.53 -49.57 ZM38.27 -92.39 L12.94 -48.3 L25 -43.3 ZM70.71 -70.71 L30.44 -39.67 L39.67 -30.44 ZM92.39 -38.27 L43.3 -25 L48.3 -12.94 Z"></path><path fill="#ece5da" fill-rule="evenodd" d="M-48 0 A48 48 0 1 1 48 0 A48 48 0 1 1 -48 0 Z M-26 0 A26 26 0 1 0 26 0 A26 26 0 1 0 -26 0 Z"></path></g>
    <g id="g3"><path fill="#ece5da" d="M0 -60 L11.5 -19.92 L51.96 -30 L23 0 L51.96 30 L11.5 19.92 L0 60 L-11.5 19.92 L-51.96 30 L-23 0 L-51.96 -30 L-11.5 -19.92 Z"></path><circle r="64" fill="none" stroke="#ece5da" stroke-width="2" vector-effect="non-scaling-stroke"></circle><g fill="#ece5da"><circle cx="90" cy="0" r="8"></circle><circle cx="83.15" cy="34.44" r="8"></circle><circle cx="63.64" cy="63.64" r="8"></circle><circle cx="34.44" cy="83.15" r="8"></circle><circle cx="0" cy="90" r="8"></circle><circle cx="-34.44" cy="83.15" r="8"></circle><circle cx="-63.64" cy="63.64" r="8"></circle><circle cx="-83.15" cy="34.44" r="8"></circle><circle cx="-90" cy="0" r="8"></circle><circle cx="-83.15" cy="-34.44" r="8"></circle><circle cx="-63.64" cy="-63.64" r="8"></circle><circle cx="-34.44" cy="-83.15" r="8"></circle><circle cx="0" cy="-90" r="8"></circle><circle cx="34.44" cy="-83.15" r="8"></circle><circle cx="63.64" cy="-63.64" r="8"></circle><circle cx="83.15" cy="-34.44" r="8"></circle></g></g>
    <g id="g4"><path fill="none" stroke="#ece5da" stroke-width="2" stroke-linecap="round" vector-effect="non-scaling-stroke" d="M112 0 L138 0 M146 0 L166 0 M172 0 L180 0 M108.18 28.99 L125.57 33.65 M141.03 37.79 L152.62 40.89 M96.99 56 L116.05 67 M79.2 79.2 L97.58 97.58 M103.24 103.24 L117.38 117.38 M121.62 121.62 L127.28 127.28 M56 96.99 L65 112.58 M73 126.44 L79 136.83 M28.99 108.18 L34.68 129.43 M0 112 L0 138 M0 146 L0 166 M0 172 L0 180 M-28.99 108.18 L-33.65 125.57 M-37.79 141.03 L-40.89 152.62 M-56 96.99 L-67 116.05 M-79.2 79.2 L-97.58 97.58 M-103.24 103.24 L-117.38 117.38 M-121.62 121.62 L-127.28 127.28 M-96.99 56 L-112.58 65 M-126.44 73 L-136.83 79 M-108.18 28.99 L-129.43 34.68 M-112 0 L-138 0 M-146 0 L-166 0 M-172 0 L-180 0 M-108.18 -28.99 L-125.57 -33.65 M-141.03 -37.79 L-152.62 -40.89 M-96.99 -56 L-116.05 -67 M-79.2 -79.2 L-97.58 -97.58 M-103.24 -103.24 L-117.38 -117.38 M-121.62 -121.62 L-127.28 -127.28 M-56 -96.99 L-65 -112.58 M-73 -126.44 L-79 -136.83 M-28.99 -108.18 L-34.68 -129.43 M0 -112 L0 -138 M0 -146 L0 -166 M0 -172 L0 -180 M28.99 -108.18 L33.65 -125.57 M37.79 -141.03 L40.89 -152.62 M56 -96.99 L67 -116.05 M79.2 -79.2 L97.58 -97.58 M103.24 -103.24 L117.38 -117.38 M121.62 -121.62 L127.28 -127.28 M96.99 -56 L112.58 -65 M126.44 -73 L136.83 -79 M108.18 -28.99 L129.43 -34.68"></path><path fill="#ece5da" d="M0 -100 L13.01 -31.41 L70.71 -70.71 L31.41 -13.01 L100 0 L31.41 13.01 L70.71 70.71 L13.01 31.41 L0 100 L-13.01 31.41 L-70.71 70.71 L-31.41 13.01 L-100 0 L-31.41 -13.01 L-70.71 -70.71 L-13.01 -31.41 Z"></path></g>
    <g id="g5"><path fill="none" stroke="#ece5da" stroke-width="1.5" stroke-linecap="round" vector-effect="non-scaling-stroke" d="M7 0 L100 0 M6.82 1.56 L56.55 12.91 M6.31 3.04 L73.88 35.58 M5.47 4.36 L34.4 27.43 M4.36 5.47 L62.35 78.18 M3.04 6.31 L25.17 52.26 M1.56 6.82 L18.25 79.94 M0 7 L0 44 M-1.56 6.82 L-22.25 97.49 M-3.04 6.31 L-25.17 52.26 M-4.36 5.47 L-51.13 64.11 M-5.47 4.36 L-34.4 27.43 M-6.31 3.04 L-90.1 43.39 M-6.82 1.56 L-56.55 12.91 M-7 0 L-82 0 M-6.82 -1.56 L-42.9 -9.79 M-6.31 -3.04 L-90.1 -43.39 M-5.47 -4.36 L-45.35 -36.16 M-4.36 -5.47 L-51.13 -64.11 M-3.04 -6.31 L-19.09 -39.64 M-1.56 -6.82 L-22.25 -97.49 M0 -7 L0 -58 M1.56 -6.82 L18.25 -79.94 M3.04 -6.31 L19.09 -39.64 M4.36 -5.47 L62.35 -78.18 M5.47 -4.36 L45.35 -36.16 M6.31 -3.04 L73.88 -35.58 M6.82 -1.56 L42.9 -9.79"></path><circle r="8" fill="#ece5da"></circle></g>
  
<g id="g2" fill="none" stroke="#ece5da" stroke-width="3" vector-effect="non-scaling-stroke" stroke-linejoin="miter"><path d="M0 -100 L24 -41.57 L86.6 -50 L48 0 L86.6 50 L24 41.57 L0 100 L-24 41.57 L-86.6 50 L-48 0 L-86.6 -50 L-24 -41.57 Z"></path><path d="M0 -40 L9.5 -16.45 L34.64 -20 L19 0 L34.64 20 L9.5 16.45 L0 40 L-9.5 16.45 L-34.64 20 L-19 0 L-34.64 -20 L-9.5 -16.45 Z"></path></g>
<g id="g6"><path fill="#ece5da" d="M0 -100 L26 -45.03 L86.6 -50 L52 0 L86.6 50 L26 45.03 L0 100 L-26 45.03 L-86.6 50 L-52 0 L-86.6 -50 L-26 -45.03 Z"></path></g>
<g id="g7"><path fill="#ece5da" d="M0 -100 Q11 -11 100 0 Q11 11 0 100 Q-11 11 -100 0 Q-11 -11 0 -100 Z"></path></g></defs>
  <g fill="none" stroke="#ece5da" stroke-width="2.6" stroke-linecap="round" stroke-dasharray="15 8 0.01 8">
    <path d="M244.3 834.6 L270.7 829.4"></path>
    <path d="M356 770.4 L379.8 732.1"></path>
    <path d="M444.3 695 L490.1 693.6"></path>
    <path d="M546.5 719.7 L634.8 830.3"></path>
    <path d="M634.2 880.4 L619.4 898.1"></path>
    <path d="M394.1 654.8 L328.1 313.6"></path>
    <path d="M290.4 249.2 L91.4 80.8"></path>
    <path d="M74 93 L142.6 281.9"></path>
    <path d="M155.5 350.6 L166.2 772"></path>
    <path d="M282.2 284.1 L189.1 306.8"></path>
  </g>
  <use href="#g4" transform="translate(168.2 849.6) scale(0.392)"></use>
  <use href="#g3" transform="translate(59.9 54.2) scale(0.349)"></use>
  <use href="#g5" transform="translate(402.1 696.2) scale(0.352)"></use>
  <use href="#g1" transform="translate(320.6 274.8) scale(0.326)"></use>
  <use href="#g7" transform="translate(154.6 315.2) scale(0.284)"></use>
  <use href="#g2" transform="translate(595.5 926.7) scale(0.303)"></use>
  <use href="#g6" transform="translate(524.8 692.6) scale(0.278)"></use>
  <use href="#g5" transform="translate(654.9 855.6) scale(0.253)"></use>
  <use href="#g4" transform="translate(326.2 818.5) scale(0.275)"></use>
</svg>